<svg fill="none" xmlns="http://www.w3.org/2000/svg" viewBox="0 0 31 31" class="w-full h-full"><path d="M15.5 0C6.94 0 0 6.94 0 15.5 0 24.06 6.94 31 15.5 31 24.06 31 31 24.06 31 15.5 31 6.94 24.06 0 15.5 0zm1.292 20.74v-3.948h3.867a23.925 23.925 0 01-.59 4.235 31.323 31.323 0 00-3.277-.287zm2.527 2.793c-.644 1.718-1.497 3.225-2.527 4.464V23.32c.86.036 1.703.105 2.527.212v.001zm-2.527-9.325v-3.894c1.101-.039 2.2-.135 3.29-.29.308 1.327.503 2.727.577 4.184h-3.867zm0-6.476V3.003c1.04 1.252 1.9 2.777 2.546 4.516-.83.108-1.68.177-2.546.213zm3.491-4.22c1.598.64 3.04 1.586 4.25 2.772-.83.302-1.694.57-2.608.784a19.788 19.788 0 00-1.642-3.556zM10.93 21.027a23.802 23.802 0 01-.589-4.235h3.867v3.948a31.342 31.342 0 00-3.278.287zm3.278 2.294v4.676c-1.03-1.239-1.883-2.746-2.527-4.464a29.075 29.075 0 012.527-.212zm-3.867-9.113c.074-1.457.267-2.857.576-4.183 1.068.156 2.17.245 3.291.289v3.894h-3.867zm1.323-6.69c.646-1.738 1.505-3.263 2.544-4.515v4.729c-.85-.033-1.7-.105-2.544-.213v-.001zm-2.59-.451a22.41 22.41 0 01-2.607-.784 12.966 12.966 0 014.25-2.772 19.968 19.968 0 00-1.643 3.556zm-.71 2.477a26.325 26.325 0 00-.635 4.664H2.65a12.82 12.82 0 012.089-5.835c1.136.466 2.345.865 3.627 1.171h-.002zm.012 11.964c-1.276.304-2.48.7-3.612 1.162a12.817 12.817 0 01-2.115-5.878h5.082a26.28 26.28 0 00.645 4.716zm.715 2.476c.442 1.26.992 2.43 1.623 3.503a12.93 12.93 0 01-4.205-2.732 22.734 22.734 0 012.582-.771zm12.818 0c.904.21 1.76.474 2.582.77a12.995 12.995 0 01-4.207 2.734 19.99 19.99 0 001.625-3.504zm.715-2.476c.358-1.55.574-3.128.647-4.716h5.081a12.833 12.833 0 01-2.116 5.878 24.836 24.836 0 00-3.612-1.162zm.647-7.3a26.443 26.443 0 00-.636-4.664 24.643 24.643 0 003.628-1.171 12.834 12.834 0 012.088 5.835h-5.08z" fill="currentColor"/></svg>
