<?xml version="1.0" standalone="no"?>
<!DOCTYPE svg PUBLIC "-//W3C//DTD SVG 20010904//EN"
 "http://www.w3.org/TR/2001/REC-SVG-20010904/DTD/svg10.dtd">
<svg version="1.0" xmlns="http://www.w3.org/2000/svg"
 width="980.000000pt" height="644.000000pt" viewBox="0 0 980.000000 644.000000"
 preserveAspectRatio="xMidYMid meet">
<metadata>
Created by potrace 1.16, written by Peter Selinger 2001-2019
</metadata>
<g transform="translate(0.000000,644.000000) scale(0.100000,-0.100000)"
fill="#000000" stroke="none">
<path d="M3343 4363 c4 -3 10 -3 14 0 3 4 0 7 -7 7 -7 0 -10 -3 -7 -7z M3384
4351 c3 -5 22 -12 42 -16 51 -9 209 -92 280 -147 198 -154 334 -352 415 -607
13 -40 25 -68 27 -61 5 14 -31 143 -54 197 -8 17 -14 38 -14 47 0 9 -5 16 -11
16 -5 0 -7 5 -4 10 3 6 2 10 -4 10 -5 0 -15 16 -22 35 -7 19 -17 35 -21 35 -4
0 -8 3 -7 8 3 18 -14 51 -24 45 -6 -4 -8 2 -4 16 4 17 2 21 -9 17 -8 -3 -14 1
-14 9 0 7 -16 28 -35 46 -18 18 -32 36 -30 40 3 4 -2 10 -10 13 -9 3 -20 17
-25 31 -5 14 -20 29 -34 34 -13 5 -32 20 -42 33 -11 14 -23 24 -28 25 -5 0
-18 7 -30 16 -11 10 -34 27 -51 40 -68 52 -312 143 -291 108z m456 -246 c0 -3
-2 -5 -5 -5 -3 0 -5 2 -5 5 0 3 2 5 5 5 3 0 5 -2 5 -5z M5356 4182 c-2 -4 -1
-14 5 -22 7 -12 9 -10 9 8 0 23 -5 28 -14 14z M5386 4175 c4 -8 10 -15 15 -15
4 0 6 7 3 15 -4 8 -10 15 -15 15 -4 0 -6 -7 -3 -15z M5150 4164 c0 -15 27 -50
34 -43 4 3 -2 17 -13 30 -11 13 -20 19 -21 13z M5280 4155 c0 -3 2 -5 5 -5 3
0 5 2 5 5 0 3 -2 5 -5 5 -3 0 -5 -2 -5 -5z M5325 4150 c3 -5 8 -10 11 -10 2 0
4 5 4 10 0 6 -5 10 -11 10 -5 0 -7 -4 -4 -10z M4351 4123 c1 -18 3 -22 6 -10
4 13 16 3 52 -45 26 -35 105 -137 177 -228 224 -283 655 -834 665 -850 8 -11
11 -12 15 -2 3 6 16 12 29 12 18 0 486 87 673 126 40 8 52 23 14 17 -73 -12
-270 -48 -480 -89 -129 -26 -237 -42 -241 -38 -20 23 -711 906 -815 1041 -74
96 -97 112 -95 66z M5195 4140 c3 -5 8 -10 11 -10 2 0 4 5 4 10 0 6 -5 10 -11
10 -5 0 -7 -4 -4 -10z M5250 4140 c0 -7 3 -10 7 -7 3 4 3 10 0 14 -4 3 -7 0
-7 -7z M5080 4130 c0 -5 5 -10 11 -10 5 0 7 5 4 10 -3 6 -8 10 -11 10 -2 0 -4
-4 -4 -10z M5133 4134 c9 -3 15 -10 12 -15 -4 -5 -1 -9 5 -9 19 0 5 25 -16 27
-16 2 -16 1 -1 -3z M4410 4005 c0 -3 2 -5 5 -5 3 0 5 2 5 5 0 3 -2 5 -5 5 -3
0 -5 -2 -5 -5z M5793 3976 c-86 -17 -166 -52 -210 -94 -64 -60 -36 -145 66
-197 161 -81 443 -83 579 -4 19 11 39 16 45 13 7 -4 9 -4 5 1 -4 4 6 23 22 42
33 38 37 70 15 114 -51 97 -323 163 -522 125z m314 -54 c210 -66 188 -198 -42
-248 -81 -18 -147 -17 -241 2 -94 19 -142 42 -178 84 -30 37 -31 41 -11 80 49
95 295 138 472 82z M2470 3875 c0 -3 2 -5 5 -5 3 0 5 2 5 5 0 3 -2 5 -5 5 -3
0 -5 -2 -5 -5z M4361 3866 c-11 -13 -9 -19 12 -38 14 -13 159 -198 323 -413
164 -214 357 -467 430 -562 74 -97 135 -168 140 -163 5 5 63 18 129 31 141 26
242 45 270 52 11 3 40 8 65 12 102 16 263 57 277 70 36 37 41 18 37 -132 -2
-66 -4 -125 -4 -130 0 -4 -4 -2 -9 6 -5 7 -14 10 -20 7 -18 -11 -13 -33 9 -39
20 -5 21 -12 19 -136 0 -72 -5 -131 -10 -131 -5 0 -9 5 -9 10 0 17 -18 11 -25
-9 -4 -15 -35 -24 -167 -51 -154 -30 -163 -31 -175 -14 -12 16 -14 17 -25 2
-11 -14 -319 -88 -366 -88 -6 0 -43 44 -83 98 -40 53 -98 132 -130 174 -32 42
-65 93 -74 112 -10 20 -23 36 -30 36 -7 0 -21 12 -31 28 -9 15 -70 97 -134
182 -131 175 -270 376 -270 392 0 5 -6 8 -12 5 -8 -2 -33 24 -58 59 -47 66
-80 83 -80 41 0 -15 25 -48 70 -95 39 -39 70 -77 70 -84 0 -6 3 -8 6 -5 7 7
94 -117 94 -133 0 -6 5 -10 11 -10 6 0 8 -7 5 -17 -4 -10 -4 -14 0 -10 7 7 44
-30 44 -44 0 -4 9 -18 20 -31 59 -70 90 -111 90 -119 0 -6 11 -20 23 -32 13
-12 22 -28 19 -36 -3 -8 0 -11 7 -7 6 4 11 3 11 -2 0 -5 13 -25 30 -43 16 -19
32 -42 36 -52 3 -9 10 -15 15 -12 5 4 9 -1 9 -9 0 -9 4 -16 8 -16 5 0 15 -11
22 -25 7 -13 16 -22 20 -20 5 3 11 -2 14 -11 4 -10 2 -13 -7 -9 -6 4 -2 -2 11
-13 12 -11 22 -23 22 -27 0 -4 14 -23 30 -42 17 -18 30 -40 30 -48 0 -7 6 -20
13 -27 17 -17 104 -144 109 -159 8 -25 102 -21 248 11 80 17 235 49 345 70
110 22 236 51 280 64 78 22 592 124 945 187 152 27 421 79 487 94 27 6 82 55
62 55 -8 0 -86 -15 -174 -34 -111 -24 -164 -31 -172 -24 -9 7 -15 3 -23 -14
-10 -21 -27 -27 -168 -55 -131 -26 -158 -29 -165 -17 -11 19 -27 18 -27 -1 0
-8 -9 -15 -20 -15 -19 0 -21 5 -18 56 3 54 4 57 37 68 43 14 60 38 41 61 -9
11 -22 14 -42 10 -27 -6 -28 -5 -28 34 0 23 3 42 8 42 31 6 52 5 52 -1 0 -9
77 3 255 39 303 63 456 92 464 87 4 -3 6 -47 5 -98 -2 -61 0 -83 5 -63 5 17 9
63 10 103 1 67 -1 73 -21 82 -18 7 -19 9 -5 9 9 1 17 6 17 11 0 13 14 15 -176
-25 -92 -19 -176 -33 -186 -29 -14 4 -21 0 -25 -15 -3 -12 -6 -21 -7 -21 -18
0 -234 -43 -270 -54 -46 -14 -48 -14 -53 5 -7 24 -8 24 -33 -1 -33 -33 -41
-25 -38 42 3 62 3 62 37 69 63 13 69 62 8 67 -36 3 -37 4 -37 41 0 32 4 40 23
45 31 8 39 7 33 -2 -8 -13 62 -4 199 24 100 21 524 103 533 104 1 0 3 -44 3
-97 l2 -98 9 94 c9 98 2 126 -29 114 -11 -4 -14 -2 -9 5 4 7 14 12 22 12 8 0
14 5 14 10 0 6 -1 10 -3 10 -13 0 -308 -62 -329 -70 -18 -5 -28 -5 -28 1 0 17
-29 9 -35 -10 -4 -15 -32 -24 -142 -45 -75 -15 -147 -32 -159 -37 -13 -4 -24
-5 -24 -1 -1 28 -19 33 -40 12 -12 -12 -26 -18 -31 -13 -13 13 2 123 17 123
35 0 65 24 62 49 -3 23 -7 26 -41 25 -37 -1 -38 0 -35 30 3 29 6 31 58 40 114
17 683 127 706 136 33 13 38 -3 30 -95 -4 -41 -3 -76 2 -79 14 -9 22 166 8
181 -10 11 -478 -71 -738 -128 l-56 -13 -54 59 c-107 119 -116 126 -140 120
-26 -5 -328 -62 -553 -104 -208 -38 -201 -30 -110 -134 l76 -87 2 -135 c2
-135 0 -144 -20 -124 -8 8 -15 3 -25 -18 -10 -22 -21 -29 -48 -31 -48 -3 -208
-32 -248 -44 -28 -8 -36 -7 -47 9 -12 14 -16 15 -23 5 -8 -11 -383 -97 -387
-89 -11 19 -160 207 -165 207 -11 0 -115 143 -112 154 2 5 -2 20 -9 33 -9 17
-15 20 -26 12 -9 -9 -13 -8 -13 0 0 12 -37 62 -266 354 -81 103 -148 196 -149
208 -2 23 -25 51 -25 30 0 -13 -104 116 -111 138 -4 10 -8 9 -18 -3z m2307
-521 c18 -19 32 -37 32 -41 0 -3 9 -19 20 -34 12 -17 16 -30 9 -32 -5 -2 -7
-11 -3 -22 5 -14 9 -15 15 -4 6 9 9 7 9 -8 0 -11 -3 -24 -7 -28 -8 -8 -13 -95
-7 -118 3 -9 13 -18 22 -21 9 -2 -8 -9 -38 -16 -103 -23 -605 -119 -608 -117
-1 2 7 25 18 51 15 36 18 51 9 61 -9 11 -8 15 3 19 11 4 14 15 10 38 -3 18 -6
49 -6 70 0 20 -4 37 -7 37 -4 0 -17 15 -28 34 -17 27 -19 39 -11 60 9 25 13
26 84 26 55 0 75 4 79 14 4 9 14 12 26 9 11 -3 44 1 73 8 29 8 58 14 63 14 6
0 13 4 17 10 5 6 11 6 19 -2 8 -8 21 -6 53 8 67 30 117 26 154 -16z m-591 -82
c-4 -3 -7 0 -7 7 0 7 3 10 7 7 3 -4 3 -10 0 -14z m-1117 -148 c0 -3 -2 -5 -5
-5 -3 0 -5 2 -5 5 0 3 2 5 5 5 3 0 5 -2 5 -5z m1778 -172 c-5 -32 -9 -69 -9
-82 1 -13 -4 -30 -10 -37 -9 -11 -7 -20 5 -39 9 -14 12 -25 7 -25 -6 0 -8 -6
-6 -13 5 -12 -610 -145 -621 -134 -3 3 2 12 11 21 9 9 12 16 6 16 -5 0 -4 12
4 28 8 15 12 46 9 72 -2 25 -4 62 -4 83 0 22 -4 37 -11 37 -39 0 20 15 182 46
101 19 225 43 274 54 50 11 101 21 115 23 59 10 57 12 48 -50z m-618 -88 c0
-3 -2 -5 -5 -5 -3 0 -5 2 -5 5 0 3 2 5 5 5 3 0 5 -2 5 -5z m-483 -72 c-4 -3
-10 -3 -14 0 -3 4 0 7 7 7 7 0 10 -3 7 -7z m-360 -70 c-4 -3 -10 -3 -14 0 -3
4 0 7 7 7 7 0 10 -3 7 -7z m1451 -19 c-12 -13 -14 -23 -7 -41 27 -71 -44 -163
-112 -146 -15 4 -20 3 -15 -5 4 -7 3 -12 -2 -12 -6 0 -13 8 -16 17 -5 11 -10
13 -14 7 -8 -13 -55 -23 -132 -30 -30 -2 -57 -9 -61 -15 -3 -6 -9 -10 -13 -9
-3 1 -31 -4 -62 -10 -43 -9 -53 -15 -44 -23 10 -9 14 -9 17 1 3 6 9 10 13 7
11 -7 227 33 256 47 15 7 28 7 40 0 27 -15 -2 -26 -131 -51 -233 -44 -245 -45
-257 -33 -9 9 -8 12 4 12 9 0 19 4 23 9 3 6 -10 8 -34 5 -22 -3 -42 0 -46 6
-12 20 -13 95 -2 102 8 5 5 8 -6 8 -10 0 -16 4 -12 9 3 6 -2 14 -11 19 -15 8
-14 11 7 17 32 11 589 123 614 124 18 1 18 0 3 -15z m2 -19 c0 -3 -2 -5 -5 -5
-3 0 -5 2 -5 5 0 3 2 5 5 5 3 0 5 -2 5 -5z m-1700 -270 c0 -3 -2 -5 -5 -5 -3
0 -5 2 -5 5 0 3 2 5 5 5 3 0 5 -2 5 -5z M6390 3295 c0 -3 2 -5 5 -5 3 0 5 2 5
5 0 3 -2 5 -5 5 -3 0 -5 -2 -5 -5z M6410 3290 c0 -6 11 -9 25 -7 37 5 42 17 7
17 -18 0 -32 -5 -32 -10z M6253 3283 c4 -3 10 -3 14 0 3 4 0 7 -7 7 -7 0 -10
-3 -7 -7z M6318 3283 c7 -3 16 -2 19 1 4 3 -2 6 -13 5 -11 0 -14 -3 -6 -6z
M6353 3273 c-3 -10 -8 -21 -10 -25 -10 -19 6 -5 21 17 9 14 12 25 6 25 -6 0
-13 -8 -17 -17z M6283 3263 c4 -3 10 -3 14 0 3 4 0 7 -7 7 -7 0 -10 -3 -7 -7z
M6310 3259 c0 -5 5 -7 10 -4 6 3 10 8 10 11 0 2 -4 4 -10 4 -5 0 -10 -5 -10
-11z M6380 3260 c0 -7 3 -10 7 -7 3 4 3 10 0 14 -4 3 -7 0 -7 -7z M6400 3260
c0 -7 3 -10 7 -7 3 4 3 10 0 14 -4 3 -7 0 -7 -7z M6433 3263 c4 -3 10 -3 14 0
3 4 0 7 -7 7 -7 0 -10 -3 -7 -7z M6280 3245 c0 -3 2 -5 5 -5 3 0 5 2 5 5 0 3
-2 5 -5 5 -3 0 -5 -2 -5 -5z M6350 3155 c0 -3 2 -5 5 -5 3 0 5 2 5 5 0 3 -2 5
-5 5 -3 0 -5 -2 -5 -5z M6380 3155 c0 -3 2 -5 5 -5 3 0 5 2 5 5 0 3 -2 5 -5 5
-3 0 -5 -2 -5 -5z M6409 3144 c-9 -11 -7 -14 7 -14 27 0 64 11 64 19 0 12 -60
8 -71 -5z m28 -1 c-4 -3 -10 -3 -14 0 -3 4 0 7 7 7 7 0 10 -3 7 -7z M6360
3125 c0 -8 2 -15 4 -15 2 0 6 7 10 15 3 8 1 15 -4 15 -6 0 -10 -7 -10 -15z
M6340 3125 c0 -3 2 -5 5 -5 3 0 5 2 5 5 0 3 -2 5 -5 5 -3 0 -5 -2 -5 -5z
M6440 3101 c-25 -7 -25 -7 -2 -13 12 -3 22 -14 22 -23 0 -14 -3 -15 -15 -5
-10 8 -15 9 -15 2 0 -6 -8 -9 -17 -6 -16 5 -16 4 0 -6 20 -13 110 7 101 22 -3
4 -13 4 -24 -2 -19 -10 -36 12 -24 31 3 5 4 9 2 8 -2 -1 -14 -4 -28 -8z M6383
3083 c4 -3 10 -3 14 0 3 4 0 7 -7 7 -7 0 -10 -3 -7 -7z M6533 3073 c4 -3 10
-3 14 0 3 4 0 7 -7 7 -7 0 -10 -3 -7 -7z M6563 3073 c4 -3 10 -3 14 0 3 4 0 7
-7 7 -7 0 -10 -3 -7 -7z M6380 3045 c0 -3 2 -5 5 -5 3 0 5 2 5 5 0 3 -2 5 -5
5 -3 0 -5 -2 -5 -5z M6518 3013 c7 -3 16 -2 19 1 4 3 -2 6 -13 5 -11 0 -14 -3
-6 -6z M6435 3000 c-3 -6 1 -7 9 -4 18 7 21 14 7 14 -6 0 -13 -4 -16 -10z
M6480 3005 c0 -3 2 -5 5 -5 3 0 5 2 5 5 0 3 -2 5 -5 5 -3 0 -5 -2 -5 -5z
M6710 2935 c0 -3 2 -5 5 -5 3 0 5 2 5 5 0 3 -2 5 -5 5 -3 0 -5 -2 -5 -5z
M6415 2850 c-18 -8 -17 -9 8 -9 16 -1 26 3 22 9 -3 6 -7 10 -8 9 -1 0 -11 -4
-22 -9z M6440 2810 c-21 -7 -21 -8 -5 -9 11 0 27 4 35 9 18 11 5 11 -30 0z
M6500 2770 c0 -5 9 -10 20 -10 11 0 20 5 20 10 0 6 -9 10 -20 10 -11 0 -20 -4
-20 -10z M6420 2765 c0 -3 2 -5 5 -5 3 0 5 2 5 5 0 3 -2 5 -5 5 -3 0 -5 -2 -5
-5z M6385 2750 c3 -6 20 -10 37 -10 38 0 34 5 -10 13 -21 4 -31 3 -27 -3z
M6470 2755 c0 -3 2 -5 5 -5 3 0 5 2 5 5 0 3 -2 5 -5 5 -3 0 -5 -2 -5 -5z
M6315 2741 c-14 -6 -8 -8 22 -7 23 0 36 4 30 8 -15 9 -26 9 -52 -1z M6550
2735 c0 -3 2 -5 5 -5 3 0 5 2 5 5 0 3 -2 5 -5 5 -3 0 -5 -2 -5 -5z M6248 2723
c7 -3 16 -2 19 1 4 3 -2 6 -13 5 -11 0 -14 -3 -6 -6z M6340 2725 c0 -3 2 -5 5
-5 3 0 5 2 5 5 0 3 -2 5 -5 5 -3 0 -5 -2 -5 -5z M6518 2723 c7 -3 16 -2 19 1
4 3 -2 6 -13 5 -11 0 -14 -3 -6 -6z M6463 2713 c4 -3 10 -3 14 0 3 4 0 7 -7 7
-7 0 -10 -3 -7 -7z M6490 2715 c0 -3 2 -5 5 -5 3 0 5 2 5 5 0 3 -2 5 -5 5 -3
0 -5 -2 -5 -5z M6433 2703 c4 -3 10 -3 14 0 3 4 0 7 -7 7 -7 0 -10 -3 -7 -7z
M6355 2690 c-8 -13 15 -13 35 0 12 8 11 10 -7 10 -12 0 -25 -4 -28 -10z M6310
2675 c0 -3 2 -5 5 -5 3 0 5 2 5 5 0 3 -2 5 -5 5 -3 0 -5 -2 -5 -5z M6253 2663
c4 -3 10 -3 14 0 3 4 0 7 -7 7 -7 0 -10 -3 -7 -7z M6450 2575 c0 -3 2 -5 5 -5
3 0 5 2 5 5 0 3 -2 5 -5 5 -3 0 -5 -2 -5 -5z M6403 2563 c-13 -2 -23 -9 -23
-15 0 -5 7 -7 16 -4 9 3 22 6 30 6 8 0 14 5 14 10 0 6 -3 9 -7 9 -5 -1 -18 -4
-30 -6z M6338 2543 c7 -3 16 -2 19 1 4 3 -2 6 -13 5 -11 0 -14 -3 -6 -6z
M6463 2523 c4 -3 10 -3 14 0 3 4 0 7 -7 7 -7 0 -10 -3 -7 -7z M6330 2510 c0
-7 3 -10 7 -7 3 4 3 10 0 14 -4 3 -7 0 -7 -7z M6370 2510 c0 -7 3 -10 7 -7 3
4 3 10 0 14 -4 3 -7 0 -7 -7z M6400 2510 c0 -13 20 -13 40 0 12 8 9 10 -12 10
-16 0 -28 -4 -28 -10z M6630 2515 c0 -3 2 -5 5 -5 3 0 5 2 5 5 0 3 -2 5 -5 5
-3 0 -5 -2 -5 -5z M6350 2500 c0 -7 3 -10 7 -7 3 4 3 10 0 14 -4 3 -7 0 -7 -7z
M6474 2498 c-4 -7 -3 -8 4 -4 12 7 16 16 8 16 -3 0 -8 -5 -12 -12z M4350 3825
c0 -3 2 -5 5 -5 3 0 5 2 5 5 0 3 -2 5 -5 5 -3 0 -5 -2 -5 -5z M2425 3769 c-11
-17 1 -21 15 -4 8 9 8 15 2 15 -6 0 -14 -5 -17 -11z M2387 3688 c-43 -133 -58
-230 -51 -348 3 -52 5 -108 4 -124 0 -15 3 -33 8 -40 4 -6 9 -24 11 -41 4 -46
18 -51 15 -5 -1 22 -7 46 -13 54 -13 15 -5 46 13 46 8 0 8 2 0 8 -14 8 -23
181 -11 199 4 7 5 28 1 48 -4 21 -2 35 4 35 5 0 13 24 16 52 4 29 11 57 15 63
11 13 21 105 12 105 -4 0 -15 -24 -24 -52z m13 -43 c0 -3 -2 -5 -5 -5 -3 0 -5
2 -5 5 0 3 2 5 5 5 3 0 5 -2 5 -5z M6290 3705 c0 -3 2 -5 5 -5 3 0 5 2 5 5 0
3 -2 5 -5 5 -3 0 -5 -2 -5 -5z M2843 3643 c4 -3 10 -3 14 0 3 4 0 7 -7 7 -7 0
-10 -3 -7 -7z M4360 3635 c0 -3 2 -5 5 -5 3 0 5 2 5 5 0 3 -2 5 -5 5 -3 0 -5
-2 -5 -5z M4357 3575 c-4 -8 -2 -25 4 -37 8 -20 9 -19 3 7 -3 16 -3 27 1 23
32 -31 882 -1174 879 -1180 -3 -4 2 -5 11 -2 8 4 14 13 13 22 -2 9 4 17 12 18
9 0 10 -1 2 -3 -7 -3 -10 -8 -7 -12 5 -9 661 120 705 138 23 9 22 10 -15 10
-40 1 -267 -43 -287 -55 -5 -3 -12 3 -15 15 -6 23 -33 29 -33 8 0 -10 -50 -24
-167 -47 -93 -18 -177 -36 -187 -40 -16 -5 -33 10 -93 89 -40 53 -104 134
-143 180 -38 47 -67 88 -64 92 7 11 -18 59 -27 53 -5 -3 -2 -17 7 -32 l16 -27
-21 25 c-11 14 -21 29 -21 33 0 8 -106 155 -120 167 -3 3 -38 48 -77 100 -39
52 -103 136 -142 185 -39 50 -71 100 -71 111 0 23 -26 52 -32 35 -1 -5 -25 22
-53 61 -53 76 -69 88 -78 63z M2754 3555 c-3 -14 -12 -25 -20 -25 -8 0 -11 -6
-7 -17 3 -10 3 -15 -2 -11 -4 4 -21 -21 -37 -55 -16 -34 -33 -64 -37 -67 -42
-30 -95 -357 -69 -429 12 -34 15 -26 22 59 9 103 16 160 26 195 28 103 56 181
76 211 13 19 27 46 30 59 3 14 12 29 19 33 18 10 29 58 16 66 -6 4 -13 -4 -17
-19z M4540 3575 c0 -3 2 -5 5 -5 3 0 5 2 5 5 0 3 -2 5 -5 5 -3 0 -5 -2 -5 -5z
M4710 3555 c0 -3 2 -5 5 -5 3 0 5 2 5 5 0 3 -2 5 -5 5 -3 0 -5 -2 -5 -5z
M3333 3453 c-10 -7 -29 -14 -43 -17 -42 -7 -80 -25 -80 -36 0 -6 -4 -8 -10 -5
-9 5 -55 -29 -88 -67 -9 -9 -19 -15 -24 -12 -4 3 -8 0 -8 -6 0 -15 -31 -55
-45 -59 -16 -4 -20 -11 -6 -11 6 0 1 -11 -11 -24 -13 -13 -26 -21 -30 -19 -5
2 -8 -5 -8 -17 0 -13 -4 -19 -12 -14 -7 4 -8 3 -4 -5 4 -6 0 -37 -9 -67 -26
-92 -14 -209 28 -261 7 -8 20 -23 29 -33 10 -11 15 -26 12 -35 -4 -9 1 -17 12
-21 35 -13 47 -26 32 -36 -9 -6 -6 -7 8 -3 14 4 24 0 28 -10 3 -8 14 -15 25
-15 11 0 23 -4 26 -10 3 -5 15 -10 26 -10 10 0 19 -3 19 -8 0 -10 176 -4 233
9 26 6 47 15 47 19 0 5 10 12 23 16 54 17 126 57 120 67 -4 6 0 8 10 4 10 -4
16 -2 14 6 -1 7 6 11 15 11 10 -1 16 2 13 6 -2 4 16 29 40 55 25 26 45 54 45
61 0 8 9 27 19 42 11 15 22 48 26 75 3 26 9 47 13 47 4 0 7 24 7 54 0 30 -2
50 -6 45 -3 -5 -10 18 -17 50 -7 33 -21 66 -32 76 -11 10 -17 22 -14 26 3 5 1
9 -4 9 -5 0 -12 9 -15 20 -3 10 -23 27 -46 37 -23 10 -41 21 -41 25 0 39 -267
73 -317 41z m268 -41 c61 -30 124 -85 157 -136 48 -73 36 -303 -18 -356 -3 -3
-18 -23 -34 -45 -16 -22 -45 -53 -64 -70 -19 -16 -43 -38 -54 -47 -10 -10 -22
-18 -27 -18 -5 0 -11 -4 -13 -8 -1 -4 -41 -20 -88 -35 -73 -23 -95 -26 -170
-21 -126 8 -128 8 -124 15 2 3 -8 11 -22 18 -42 19 -124 103 -147 150 -45 94
-24 286 39 348 8 8 14 18 14 23 0 34 165 156 260 192 68 26 229 20 291 -10z
M3361 3344 c-99 -21 -169 -68 -254 -173 -53 -65 -62 -200 -19 -282 116 -222
501 -143 598 123 19 53 19 148 -2 197 -45 108 -179 165 -323 135z m107 -30
c20 -3 47 -6 59 -7 12 -1 38 -17 58 -35 19 -18 39 -30 45 -27 6 4 10 3 9 -2
-1 -4 3 -21 10 -38 21 -49 28 -126 15 -175 -13 -53 -53 -120 -72 -120 -7 0
-11 -4 -8 -8 3 -5 -9 -17 -27 -27 -18 -10 -38 -25 -45 -32 -7 -7 -20 -13 -28
-13 -8 0 -14 -5 -14 -10 0 -6 -6 -10 -12 -9 -7 1 -26 -3 -41 -9 -33 -14 -171
-16 -163 -3 3 5 -2 8 -12 7 -9 0 -16 5 -14 12 1 9 -5 12 -19 10 -20 -3 -100
63 -98 80 4 23 -2 62 -8 61 -20 -3 -25 2 -14 14 6 8 12 37 13 65 1 29 5 52 8
52 4 0 12 16 20 35 8 19 20 35 27 35 8 0 11 5 8 11 -14 21 125 119 171 119 11
0 28 7 38 15 11 8 28 12 38 9 10 -3 35 -8 56 -10z m152 -59 c0 -3 -2 -5 -5 -5
-3 0 -5 2 -5 5 0 3 2 5 5 5 3 0 5 -2 5 -5z M3620 2975 c0 -3 2 -5 5 -5 3 0 5
2 5 5 0 3 -2 5 -5 5 -3 0 -5 -2 -5 -5z M4150 3440 c0 -7 3 -10 7 -7 3 4 3 10
0 14 -4 3 -7 0 -7 -7z M7670 3425 c0 -3 2 -5 5 -5 3 0 5 2 5 5 0 3 -2 5 -5 5
-3 0 -5 -2 -5 -5z M7650 3415 c0 -3 2 -5 5 -5 3 0 5 2 5 5 0 3 -2 5 -5 5 -3 0
-5 -2 -5 -5z M3050 3300 c0 -5 5 -10 10 -10 6 0 10 5 10 10 0 6 -4 10 -10 10
-5 0 -10 -4 -10 -10z M4172 3268 c-6 -13 -16 -77 -22 -143 -6 -66 -16 -133
-21 -149 -5 -17 -5 -32 -1 -35 5 -3 12 -13 15 -21 4 -8 4 3 0 24 -4 28 -3 37
6 32 7 -5 11 2 11 18 0 14 5 26 10 26 6 0 8 11 4 25 -4 16 -1 32 8 43 11 12
14 35 11 82 -2 36 -3 77 -3 93 0 33 -3 34 -18 5z M7460 3285 c0 -3 2 -5 5 -5
3 0 5 2 5 5 0 3 -2 5 -5 5 -3 0 -5 -2 -5 -5z M7360 3273 c-39 -7 -48 -23 -13
-23 39 0 65 9 57 21 -3 5 -8 8 -12 8 -4 -1 -18 -4 -32 -6z M4620 3185 c0 -3 2
-5 5 -5 3 0 5 2 5 5 0 3 -2 5 -5 5 -3 0 -5 -2 -5 -5z M6023 3143 c4 -3 10 -3
14 0 3 4 0 7 -7 7 -7 0 -10 -3 -7 -7z M4660 3040 c0 -13 18 -22 24 -11 3 5 -1
11 -9 15 -8 3 -15 1 -15 -4z M2380 3025 c0 -3 2 -5 5 -5 3 0 5 2 5 5 0 3 -2 5
-5 5 -3 0 -5 -2 -5 -5z M4750 3015 c0 -3 2 -5 5 -5 3 0 5 2 5 5 0 3 -2 5 -5 5
-3 0 -5 -2 -5 -5z M4692 3001 c2 -7 7 -12 11 -12 12 1 9 15 -3 20 -7 2 -11 -2
-8 -8z m18 -6 c0 -3 -2 -5 -5 -5 -3 0 -5 2 -5 5 0 3 2 5 5 5 3 0 5 -2 5 -5z
M7440 2995 c0 -3 2 -5 5 -5 3 0 5 2 5 5 0 3 -2 5 -5 5 -3 0 -5 -2 -5 -5z
M2400 2970 c0 -7 3 -10 7 -7 3 4 3 10 0 14 -4 3 -7 0 -7 -7z M5235 2970 c3 -5
8 -10 11 -10 3 0 2 5 -1 10 -3 6 -8 10 -11 10 -3 0 -2 -4 1 -10z M7315 2970
c-4 -6 6 -10 24 -10 16 0 33 5 36 10 4 6 -6 10 -24 10 -16 0 -33 -4 -36 -10z
M4710 2965 c0 -3 2 -5 5 -5 3 0 5 2 5 5 0 3 -2 5 -5 5 -3 0 -5 -2 -5 -5z
M5230 2945 c0 -3 2 -5 5 -5 3 0 5 2 5 5 0 3 -2 5 -5 5 -3 0 -5 -2 -5 -5z
M5470 2903 c0 -7 11 -13 25 -13 14 0 25 6 25 13 0 6 -11 12 -25 12 -14 0 -25
-6 -25 -12z M5435 2899 c-11 -4 -32 -8 -47 -8 -16 -1 -28 -6 -28 -12 0 -12 79
-3 94 12 14 13 4 18 -19 8z M2576 2893 c-11 -11 -6 -23 9 -23 8 0 15 4 15 9 0
13 -16 22 -24 14z M4112 2880 c0 -14 2 -19 5 -12 2 6 2 18 0 25 -3 6 -5 1 -5
-13z M2610 2745 c0 -3 2 -5 5 -5 3 0 5 2 5 5 0 3 -2 5 -5 5 -3 0 -5 -2 -5 -5z
M7430 2705 c0 -3 2 -5 5 -5 3 0 5 2 5 5 0 3 -2 5 -5 5 -3 0 -5 -2 -5 -5z
M3510 2685 c0 -3 2 -5 5 -5 3 0 5 2 5 5 0 3 -2 5 -5 5 -3 0 -5 -2 -5 -5z
M7295 2680 c-7 -12 19 -12 55 0 22 7 21 8 -12 9 -20 1 -40 -3 -43 -9z M5473
2603 c9 -2 23 -2 30 0 6 3 -1 5 -18 5 -16 0 -22 -2 -12 -5z M2630 2585 c0 -15
-2 -15 -16 -5 -12 11 -15 11 -12 -1 2 -8 -4 -13 -14 -13 -10 1 -18 -2 -18 -7
0 -5 -6 -6 -13 -3 -17 6 -131 -103 -142 -136 -4 -13 -14 -30 -21 -38 -8 -7
-14 -19 -14 -27 0 -7 -7 -26 -15 -41 -21 -40 -20 -190 1 -246 33 -89 47 -112
102 -168 64 -64 213 -144 292 -155 l45 -6 -57 33 c-32 18 -72 45 -90 61 -18
15 -61 47 -94 71 -148 106 -201 288 -131 447 22 51 138 189 158 189 4 0 31
-25 60 -55 54 -57 156 -131 166 -121 4 3 0 18 -7 33 -7 16 -12 33 -11 38 2 5
-1 7 -5 3 -4 -5 -29 22 -56 60 -27 37 -54 66 -60 64 -5 -1 -19 7 -29 19 -17
19 -19 20 -19 4z M5400 2590 c-13 -9 -13 -10 0 -10 8 0 22 5 30 10 13 9 13 10
0 10 -8 0 -22 -5 -30 -10z M3962 2571 c-44 -8 -40 -17 34 -79 78 -64 136 -136
159 -197 24 -63 17 -184 -15 -247 -29 -58 -86 -118 -114 -119 -11 0 -33 -3
-49 -5 -26 -4 -90 19 -129 48 -12 9 -21 9 -28 2 -14 -14 -2 -44 16 -44 8 0 14
-4 14 -10 0 -5 6 -10 14 -10 7 0 26 -7 42 -15 16 -8 31 -11 34 -6 3 4 19 8 36
9 44 1 125 44 161 86 68 77 99 248 59 325 -8 14 -20 39 -27 55 -8 16 -37 54
-66 84 -29 31 -49 60 -46 65 3 6 1 7 -6 3 -15 -10 -65 39 -56 54 3 5 5 9 3 9
-2 -1 -18 -4 -36 -8z M3778 2401 c-11 -13 -14 -28 -10 -43 8 -26 34 -31 44 -8
4 10 9 5 13 -17 4 -18 12 -33 17 -33 5 0 6 -4 3 -10 -3 -5 0 -10 9 -10 19 0
31 -56 16 -75 -7 -9 -8 -15 -3 -15 6 0 14 -27 17 -61 l7 -61 24 28 c34 40 49
102 36 150 -12 45 -72 122 -118 153 -39 25 -35 25 -55 2z M3163 2383 c-4 -10
2 -23 15 -34 29 -23 93 -120 86 -131 -3 -4 2 -8 10 -8 9 0 16 -4 16 -9 0 -22
99 -167 131 -192 38 -29 103 -48 97 -26 -3 6 -18 19 -33 27 -56 29 -67 43
-231 295 -21 33 -42 68 -46 77 -9 23 -37 23 -45 1z M2810 2335 c-8 -2 -49 -9
-90 -15 -41 -7 -81 -17 -87 -22 -19 -15 -16 -125 4 -183 24 -66 99 -147 131
-139 22 6 32 34 11 34 -6 0 -9 6 -6 13 2 6 -10 26 -27 42 -17 17 -32 37 -33
45 -1 8 -6 35 -12 58 -13 67 -6 80 48 88 25 4 52 11 58 16 17 13 93 12 106 -1
6 -6 19 -11 29 -11 10 0 18 -6 18 -14 0 -13 15 -18 99 -31 18 -3 42 -10 52
-16 15 -7 19 -7 17 3 -2 7 -57 34 -122 60 -65 26 -126 54 -136 63 -16 14 -27
16 -60 10z M3580 2335 c0 -3 2 -5 5 -5 3 0 5 2 5 5 0 3 -2 5 -5 5 -3 0 -5 -2
-5 -5z M3500 2301 c-24 -47 13 -76 67 -52 30 14 26 29 -13 52 -38 23 -41 23
-54 0z m70 -33 c0 -4 -13 -8 -30 -8 -28 0 -40 17 -24 33 8 7 54 -13 54 -25z
M3780 2315 c0 -3 2 -5 5 -5 3 0 5 2 5 5 0 3 -2 5 -5 5 -3 0 -5 -2 -5 -5z
M5400 2306 c-25 -7 -40 -15 -35 -18 13 -8 106 10 120 23 13 12 -30 10 -85 -5z
M3840 2220 c0 -7 3 -10 7 -7 3 4 3 10 0 14 -4 3 -7 0 -7 -7z M2710 1905 c0 -3
2 -5 5 -5 3 0 5 2 5 5 0 3 -2 5 -5 5 -3 0 -5 -2 -5 -5z"/>
</g>
</svg>
